  <svg
                  xmlns="http://www.w3.org/2000/svg"
                  width="35"
                  height="35"
                  viewBox="0 0 35 35"
                  fill="none"
                >
                  <path
                    d="M17.5 6.78125C10.5292 6.78125 4.85625 12.4542 4.85625 19.425C4.85625 26.3958 10.5292 32.0833 17.5 32.0833C24.4708 32.0833 30.1437 26.4104 30.1437 19.4396C30.1437 12.4688 24.4708 6.78125 17.5 6.78125ZM18.5937 18.9583C18.5937 19.5563 18.0979 20.0521 17.5 20.0521C16.9021 20.0521 16.4062 19.5563 16.4062 18.9583V11.6667C16.4062 11.0688 16.9021 10.5729 17.5 10.5729C18.0979 10.5729 18.5937 11.0688 18.5937 11.6667V18.9583Z"
                    fill="#52A7DC"
                  />
                  <path
                    d="M21.7146 5.03127H13.2854C12.7021 5.03127 12.2354 4.5646 12.2354 3.98127C12.2354 3.39794 12.7021 2.91669 13.2854 2.91669H21.7146C22.2979 2.91669 22.7646 3.38335 22.7646 3.96669C22.7646 4.55002 22.2979 5.03127 21.7146 5.03127Z"
                    fill="#52A7DC"
                  />
                </svg>