 <svg
    xmlns="http://www.w3.org/2000/svg"
    width="15"
    height="14"
    viewBox="0 0 12 11"
    fill="none"
  >
    <path
      d="M6.70596 0.914062H4.5518C4.07513 0.914062 3.68555 1.29906 3.68555 1.77573V2.20656C3.68555 2.68323 4.07055 3.06823 4.54721 3.06823H6.70596C7.18263 3.06823 7.56763 2.68323 7.56763 2.20656V1.77573C7.57221 1.29906 7.18263 0.914062 6.70596 0.914062Z"
      fill="#222B45"
    />
    <path
      d="M8.03047 2.20617C8.03047 2.93492 7.43464 3.53075 6.70589 3.53075H4.55172C3.82297 3.53075 3.22714 2.93492 3.22714 2.20617C3.22714 1.9495 2.95214 1.78908 2.72297 1.90825C2.07672 2.252 1.63672 2.93492 1.63672 3.71867V8.03158C1.63672 9.15908 2.55797 10.0803 3.68547 10.0803H7.57214C8.69964 10.0803 9.62088 9.15908 9.62088 8.03158V3.71867C9.62088 2.93492 9.18089 2.252 8.53464 1.90825C8.30547 1.78908 8.03047 1.9495 8.03047 2.20617ZM5.80297 7.76575H3.79547C3.60755 7.76575 3.45172 7.60992 3.45172 7.422C3.45172 7.23408 3.60755 7.07825 3.79547 7.07825H5.80297C5.99089 7.07825 6.14672 7.23408 6.14672 7.422C6.14672 7.60992 5.99089 7.76575 5.80297 7.76575ZM7.0038 5.93242H3.79547C3.60755 5.93242 3.45172 5.77658 3.45172 5.58867C3.45172 5.40075 3.60755 5.24492 3.79547 5.24492H7.0038C7.19172 5.24492 7.34755 5.40075 7.34755 5.58867C7.34755 5.77658 7.19172 5.93242 7.0038 5.93242Z"
      fill="#222B45"
    />
  </svg>