  <svg
    xmlns="http://www.w3.org/2000/svg"
    width="15"
    height="14"
    viewBox="0 0 12 11"
    fill="none"
  >
    <path
      d="M11.0033 3.9024V1.82156C11.0033 1.17531 10.7099 0.914062 9.98117 0.914062H8.1295C7.40075 0.914062 7.10742 1.17531 7.10742 1.82156V3.89781C7.10742 4.54865 7.40075 4.80531 8.1295 4.80531H9.98117C10.7099 4.8099 11.0033 4.54865 11.0033 3.9024Z"
      fill="#222B45"
    />
    <path
      d="M11.0033 9.05832V7.20665C11.0033 6.4779 10.7099 6.18457 9.98117 6.18457H8.1295C7.40075 6.18457 7.10742 6.4779 7.10742 7.20665V9.05832C7.10742 9.78707 7.40075 10.0804 8.1295 10.0804H9.98117C10.7099 10.0804 11.0033 9.78707 11.0033 9.05832Z"
      fill="#222B45"
    />
    <path
      d="M5.73177 3.9024V1.82156C5.73177 1.17531 5.43844 0.914062 4.70969 0.914062H2.85802C2.12927 0.914062 1.83594 1.17531 1.83594 1.82156V3.89781C1.83594 4.54865 2.12927 4.80531 2.85802 4.80531H4.70969C5.43844 4.8099 5.73177 4.54865 5.73177 3.9024Z"
      fill="#222B45"
    />
    <path
      d="M5.73177 9.05832V7.20665C5.73177 6.4779 5.43844 6.18457 4.70969 6.18457H2.85802C2.12927 6.18457 1.83594 6.4779 1.83594 7.20665V9.05832C1.83594 9.78707 2.12927 10.0804 2.85802 10.0804H4.70969C5.43844 10.0804 5.73177 9.78707 5.73177 9.05832Z"
      fill="#222B45"
    />
  </svg>