  <svg
                  xmlns="http://www.w3.org/2000/svg"
                  width="30"
                  height="30"
                  viewBox="0 0 37 37"
                  fill="none"
                >
                  <path
                    d="M26.2083 3.08333H10.7917C6.53668 3.08333 3.08334 6.52125 3.08334 10.7608V19.98V21.5217C3.08334 25.7612 6.53668 29.1992 10.7917 29.1992H13.1042C13.5204 29.1992 14.0754 29.4767 14.3375 29.8158L16.65 32.8837C17.6675 34.2404 19.3325 34.2404 20.35 32.8837L22.6625 29.8158C22.9554 29.4304 23.4179 29.1992 23.8958 29.1992H26.2083C30.4633 29.1992 33.9167 25.7612 33.9167 21.5217V10.7608C33.9167 6.52125 30.4633 3.08333 26.2083 3.08333ZM12.3333 18.5C11.47 18.5 10.7917 17.8062 10.7917 16.9583C10.7917 16.1104 11.4854 15.4167 12.3333 15.4167C13.1813 15.4167 13.875 16.1104 13.875 16.9583C13.875 17.8062 13.1967 18.5 12.3333 18.5ZM18.5 18.5C17.6367 18.5 16.9583 17.8062 16.9583 16.9583C16.9583 16.1104 17.6521 15.4167 18.5 15.4167C19.3479 15.4167 20.0417 16.1104 20.0417 16.9583C20.0417 17.8062 19.3633 18.5 18.5 18.5ZM24.6667 18.5C23.8033 18.5 23.125 17.8062 23.125 16.9583C23.125 16.1104 23.8188 15.4167 24.6667 15.4167C25.5146 15.4167 26.2083 16.1104 26.2083 16.9583C26.2083 17.8062 25.53 18.5 24.6667 18.5Z"
                    fill="#3F5AA7"
                  />
                </svg>