
  <svg
    xmlns="http://www.w3.org/2000/svg"
    width="18"
    height="16"
    viewBox="0 0 18 16"
    fill="none"
  >
    <path
      d="M12.778 15.1663C12.0108 15.1663 11.2029 14.9863 10.3678 14.6397C9.55309 14.2997 8.73158 13.833 7.93044 13.2663C7.13609 12.693 6.36889 12.053 5.64243 11.353C4.92276 10.6397 4.27098 9.88634 3.69389 9.11301C3.11001 8.31301 2.64154 7.51301 2.30887 6.73967C1.95582 5.91301 1.7793 5.11301 1.7793 4.35967C1.7793 3.83967 1.87435 3.34634 2.05766 2.88634C2.24776 2.41301 2.55328 1.97301 2.96743 1.59301C3.49021 1.08634 4.08767 0.833008 4.72587 0.833008C4.99065 0.833008 5.26223 0.893008 5.49306 0.999674C5.75785 1.11967 5.9819 1.29967 6.14484 1.53967L7.71997 3.71967C7.86254 3.91301 7.97117 4.09967 8.04586 4.28634C8.13412 4.48634 8.18164 4.68634 8.18164 4.87967C8.18164 5.13301 8.10696 5.37967 7.96438 5.61301C7.86254 5.79301 7.70639 5.98634 7.5095 6.17968L7.04782 6.65301C7.05461 6.67301 7.0614 6.68634 7.06819 6.69967C7.14966 6.83967 7.31261 7.07967 7.62492 7.43967C7.95759 7.81301 8.2699 8.15301 8.58221 8.46634C8.98278 8.85301 9.31546 9.15967 9.62777 9.41301C10.0148 9.73301 10.266 9.89301 10.4153 9.96634L10.4018 9.99967L10.8974 9.51967C11.1078 9.31301 11.3115 9.15967 11.5084 9.05968C11.8818 8.83301 12.3571 8.79301 12.8323 8.98634C13.0089 9.05967 13.199 9.15967 13.4026 9.29967L15.6567 10.873C15.9079 11.0397 16.0912 11.253 16.1999 11.5063C16.3017 11.7597 16.3492 11.993 16.3492 12.2263C16.3492 12.5463 16.2745 12.8663 16.132 13.1663C15.9894 13.4663 15.8129 13.7263 15.5888 13.9663C15.2018 14.3863 14.7809 14.6863 14.292 14.8797C13.8236 15.0663 13.3144 15.1663 12.778 15.1663ZM4.72587 1.83301C4.35246 1.83301 4.0062 1.99301 3.67352 2.31301C3.36121 2.59967 3.14395 2.91301 3.00817 3.25301C2.86559 3.59967 2.7977 3.96634 2.7977 4.35967C2.7977 4.97967 2.94706 5.65301 3.24579 6.34634C3.55131 7.05301 3.97904 7.78634 4.52219 8.51967C5.06534 9.25301 5.68317 9.96634 6.3621 10.6397C7.04103 11.2997 7.77428 11.913 8.5279 12.453C9.26115 12.9797 10.0148 13.4063 10.7616 13.713C11.9226 14.1997 13.0089 14.313 13.9051 13.9463C14.2513 13.8063 14.5568 13.593 14.8352 13.2863C14.9913 13.1197 15.1136 12.9397 15.2154 12.7263C15.2969 12.5597 15.3376 12.3863 15.3376 12.213C15.3376 12.1063 15.3172 11.9997 15.2629 11.8797C15.2426 11.8397 15.2018 11.7663 15.0728 11.6797L12.8188 10.1063C12.683 10.013 12.5608 9.94634 12.4453 9.89968C12.296 9.83967 12.2349 9.77967 12.004 9.91967C11.8683 9.98634 11.746 10.0863 11.6103 10.2197L11.0943 10.7197C10.8295 10.973 10.4221 11.033 10.1098 10.9197L9.9265 10.8397C9.64814 10.693 9.32225 10.4663 8.96242 10.1663C8.63653 9.89301 8.28348 9.57301 7.85575 9.15967C7.52308 8.82634 7.1904 8.47301 6.84414 8.07967C6.52504 7.71301 6.29421 7.39967 6.15163 7.13967L6.07016 6.93967C6.02942 6.78634 6.01584 6.69967 6.01584 6.60634C6.01584 6.36634 6.1041 6.15301 6.27384 5.98634L6.78304 5.46634C6.91883 5.33301 7.02067 5.20634 7.08856 5.09301C7.14287 5.00634 7.16324 4.93301 7.16324 4.86634C7.16324 4.81301 7.14287 4.73301 7.10893 4.65301C7.0614 4.54634 6.98672 4.42634 6.89167 4.29967L5.31654 2.11301C5.24865 2.01967 5.16718 1.95301 5.06534 1.90634C4.95671 1.85967 4.84129 1.83301 4.72587 1.83301ZM10.4018 10.0063L10.2931 10.4597L10.4764 9.99301C10.4425 9.98634 10.4153 9.99301 10.4018 10.0063Z"
      fill="#3F5AA7"
    />
    <path
      d="M13.4909 6.50033C13.2126 6.50033 12.9817 6.27366 12.9817 6.00033C12.9817 5.76033 12.7373 5.26033 12.33 4.83366C11.9294 4.41366 11.4881 4.16699 11.1147 4.16699C10.8363 4.16699 10.6055 3.94033 10.6055 3.66699C10.6055 3.39366 10.8363 3.16699 11.1147 3.16699C11.7732 3.16699 12.4657 3.51366 13.07 4.14699C13.6335 4.74033 14.0001 5.46699 14.0001 6.00033C14.0001 6.27366 13.7693 6.50033 13.4909 6.50033Z"
      fill="#3F5AA7"
    />
    <path
      d="M15.8672 6.49967C15.5888 6.49967 15.358 6.27301 15.358 5.99967C15.358 3.69967 13.457 1.83301 11.1147 1.83301C10.8363 1.83301 10.6055 1.60634 10.6055 1.33301C10.6055 1.05967 10.8363 0.833008 11.1147 0.833008C14.0137 0.833008 16.3764 3.15301 16.3764 5.99967C16.3764 6.27301 16.1456 6.49967 15.8672 6.49967Z"
      fill="#3F5AA7"
    />
  </svg>