  <svg
                  xmlns="http://www.w3.org/2000/svg"
                  width="35"
                  height="35"
                  viewBox="0 0 35 35"
                  fill="none"
                >
                  <path
                    d="M27.0375 6.08127L19.0167 3.0771C18.1854 2.77085 16.8292 2.77085 15.9979 3.0771L7.97709 6.08127C6.43126 6.6646 5.17709 8.47293 5.17709 10.1209V21.9333C5.17709 23.1146 5.95001 24.675 6.89793 25.375L14.9188 31.3688C16.3333 32.4334 18.6521 32.4334 20.0667 31.3688L28.0875 25.375C29.0354 24.6604 29.8083 23.1146 29.8083 21.9333V10.1209C29.8229 8.47293 28.5688 6.6646 27.0375 6.08127ZM18.5938 18.7688V22.6042C18.5938 23.2021 18.0979 23.6979 17.5 23.6979C16.9021 23.6979 16.4063 23.2021 16.4063 22.6042V18.7688C14.9333 18.3021 13.8542 16.9313 13.8542 15.3125C13.8542 13.3 15.4875 11.6667 17.5 11.6667C19.5125 11.6667 21.1458 13.3 21.1458 15.3125C21.1458 16.9458 20.0667 18.3021 18.5938 18.7688Z"
                    fill="#52A7DC"
                  />
                </svg>