  <svg
                  xmlns="http://www.w3.org/2000/svg"
                  width="35"
                  height="35"
                  viewBox="0 0 35 35"
                  fill="none"
                >
                  <path
                    d="M13.125 2.91669C9.30419 2.91669 6.19794 6.02294 6.19794 9.84377C6.19794 13.5917 9.12919 16.625 12.95 16.7563C13.0667 16.7417 13.1834 16.7417 13.2709 16.7563C13.3 16.7563 13.3146 16.7563 13.3438 16.7563C13.3584 16.7563 13.3584 16.7563 13.3729 16.7563C17.1063 16.625 20.0375 13.5917 20.0521 9.84377C20.0521 6.02294 16.9459 2.91669 13.125 2.91669Z"
                    fill="#52A7DC"
                  />
                  <path
                    d="M20.5333 20.6354C16.4646 17.9229 9.82917 17.9229 5.73125 20.6354C3.87917 21.875 2.85834 23.5521 2.85834 25.3458C2.85834 27.1396 3.87917 28.8021 5.71667 30.0271C7.75834 31.3979 10.4417 32.0833 13.125 32.0833C15.8083 32.0833 18.4917 31.3979 20.5333 30.0271C22.3708 28.7875 23.3917 27.125 23.3917 25.3166C23.3771 23.5229 22.3708 21.8604 20.5333 20.6354Z"
                    fill="#52A7DC"
                  />
                  <path
                    d="M29.1521 10.7041C29.3854 13.5333 27.3729 16.0125 24.5875 16.3479C24.5729 16.3479 24.5729 16.3479 24.5583 16.3479H24.5146C24.4271 16.3479 24.3396 16.3479 24.2667 16.3771C22.8521 16.45 21.5542 15.9979 20.5771 15.1666C22.0792 13.825 22.9396 11.8125 22.7646 9.62498C22.6625 8.44373 22.2542 7.36457 21.6417 6.44582C22.1958 6.16873 22.8375 5.99373 23.4938 5.9354C26.3521 5.68748 28.9042 7.81665 29.1521 10.7041Z"
                    fill="#52A7DC"
                  />
                  <path
                    d="M32.0688 24.1937C31.9521 25.6083 31.0479 26.8333 29.5313 27.6646C28.0729 28.4667 26.2354 28.8458 24.4125 28.8021C25.4625 27.8542 26.075 26.6729 26.1917 25.4187C26.3375 23.6104 25.4771 21.875 23.7563 20.4896C22.7792 19.7167 21.6417 19.1042 20.4021 18.6521C23.625 17.7187 27.6792 18.3458 30.1729 20.3583C31.5146 21.4375 32.2 22.7937 32.0688 24.1937Z"
                    fill="#52A7DC"
                  />
                </svg>